<?xml version="1.0" standalone="no"?>
<!DOCTYPE svg PUBLIC "-//W3C//DTD SVG 20010904//EN"
 "http://www.w3.org/TR/2001/REC-SVG-20010904/DTD/svg10.dtd">
<svg version="1.0" xmlns="http://www.w3.org/2000/svg"
 width="1000.000000pt" height="1000.000000pt" viewBox="0 0 1000.000000 1000.000000"
 preserveAspectRatio="xMidYMid meet">
<metadata>
Created by potrace 1.11, written by Peter Selinger 2001-2013
</metadata>
<g transform="translate(0.000000,1000.000000) scale(0.100000,-0.100000)"
fill="#000000" stroke="none">
<path d="M4844 8360 c-3 -2 -21 -5 -42 -6 -74 -3 -192 -14 -264 -24 -136 -19
-153 -22 -203 -31 -27 -6 -61 -12 -75 -14 -14 -2 -81 -18 -150 -35 -69 -18
-129 -33 -135 -35 -5 -1 -17 -5 -25 -8 -8 -3 -60 -20 -115 -37 -100 -33 -164
-56 -242 -91 -24 -11 -45 -19 -47 -19 -2 0 -35 -14 -73 -32 -37 -17 -70 -32
-73 -33 -3 -1 -27 -13 -55 -27 -122 -62 -180 -94 -183 -100 -2 -5 -8 -8 -13
-8 -16 0 -219 -130 -344 -221 -473 -343 -855 -794 -1109 -1309 -29 -58 -57
-118 -64 -135 -6 -16 -23 -59 -38 -95 -89 -214 -184 -567 -209 -779 -4 -30 -9
-63 -11 -75 -26 -124 -25 -667 1 -846 2 -14 9 -63 15 -110 6 -47 18 -116 25
-155 8 -38 16 -81 19 -95 2 -14 11 -56 20 -93 9 -38 16 -70 16 -72 0 -2 -39
-25 -87 -51 -134 -72 -148 -81 -283 -162 -212 -127 -490 -319 -615 -424 -371
-313 -537 -576 -464 -738 24 -54 53 -81 121 -113 94 -45 182 -58 383 -53 99 3
191 7 205 10 14 3 52 8 85 11 33 3 98 13 145 21 47 9 99 18 115 20 209 34 553
130 864 244 46 16 85 30 87 30 2 0 22 -26 45 -57 126 -170 324 -388 475 -523
34 -31 142 -122 197 -166 40 -32 205 -150 267 -190 172 -111 385 -118 532 -16
100 69 180 192 203 311 10 50 7 156 -6 206 -30 121 -86 192 -228 287 -126 85
-309 231 -406 325 -120 117 -218 231 -209 245 9 16 113 156 136 183 9 11 33
40 53 65 175 213 422 457 570 565 22 16 42 32 45 35 12 15 185 123 247 155
l68 35 20 -28 c82 -112 206 -229 314 -297 107 -66 278 -137 368 -151 20 -3 45
-8 57 -11 11 -3 80 -6 151 -8 114 -2 204 7 293 29 12 3 30 8 40 10 31 7 146
53 192 76 206 106 379 277 485 481 49 95 102 248 110 319 3 26 8 57 11 71 6
30 6 199 -1 261 -3 26 -12 76 -20 110 -8 35 -15 68 -15 74 0 28 325 142 525
185 33 7 62 13 65 14 3 1 30 5 60 9 30 5 64 10 75 12 96 19 510 26 630 10 33
-4 78 -9 100 -12 62 -7 75 -14 76 -37 0 -12 2 -31 5 -42 2 -11 6 -42 10 -70 3
-27 7 -56 9 -62 23 -70 23 -518 1 -653 -3 -14 -7 -43 -10 -65 -8 -56 -14 -90
-32 -170 -9 -38 -18 -79 -20 -90 -9 -46 -64 -220 -93 -295 -32 -81 -33 -85
-91 -205 -133 -276 -297 -505 -519 -725 -134 -134 -221 -206 -380 -316 -156
-108 -220 -193 -250 -333 -49 -230 83 -483 289 -556 67 -24 160 -38 160 -25 0
4 10 6 22 5 28 -2 121 26 168 50 44 22 189 120 266 180 100 76 108 83 130 102
12 10 43 36 70 58 70 58 300 287 375 375 162 187 321 417 440 635 47 86 159
321 159 334 0 4 9 25 19 47 58 120 169 514 196 696 25 169 35 245 42 318 9
110 9 479 0 595 -16 183 -23 236 -73 485 -3 14 -11 48 -18 76 l-13 51 81 42
c122 63 315 171 400 224 397 245 625 415 817 606 273 273 354 504 221 628 -77
72 -209 103 -417 98 -167 -4 -156 -3 -245 -17 -36 -5 -74 -11 -85 -13 -46 -6
-102 -17 -130 -26 -16 -4 -43 -11 -60 -14 -58 -10 -77 -14 -228 -55 -174 -48
-226 -63 -317 -95 -36 -12 -103 -35 -150 -50 -47 -16 -155 -55 -240 -87 -85
-33 -162 -62 -170 -64 -10 -3 -34 20 -69 68 -405 542 -966 981 -1561 1220
-150 61 -353 127 -430 142 -14 2 -32 7 -40 10 -8 3 -28 8 -45 11 -143 28 -247
46 -285 51 -25 3 -56 7 -70 9 -14 3 -68 8 -120 11 -106 8 -145 11 -145 14 0 1
-19 2 -42 3 -22 1 -39 -1 -36 -5 2 -5 -1 -8 -6 -8 -6 0 -11 3 -11 8 0 7 -178
10 -186 2z m329 -974 c43 -4 88 -9 100 -11 36 -5 120 -17 142 -20 35 -5 237
-54 310 -77 455 -137 918 -438 1214 -788 25 -30 58 -68 73 -85 16 -16 28 -33
28 -36 0 -10 -166 -227 -233 -304 -62 -72 -275 -286 -337 -340 -83 -72 -181
-147 -265 -201 -95 -62 -289 -164 -311 -164 -8 0 -32 25 -54 55 -206 279 -548
449 -897 447 -76 -1 -111 -4 -198 -18 -71 -11 -186 -48 -263 -84 -392 -184
-639 -559 -647 -985 -2 -82 3 -160 12 -210 24 -136 31 -121 -82 -169 -87 -37
-195 -73 -275 -92 -78 -18 -161 -34 -205 -39 -27 -4 -57 -8 -65 -10 -104 -29
-643 -22 -795 9 -11 3 -32 5 -47 5 -42 1 -42 3 -68 226 -8 70 -6 484 3 540 3
17 8 53 11 80 7 58 9 71 36 200 55 265 177 566 333 820 43 70 161 241 176 255
4 3 24 28 46 55 91 115 324 335 444 420 23 17 59 43 79 59 97 74 368 221 517
279 170 66 400 132 529 152 21 3 48 8 60 10 29 7 92 13 211 21 55 4 101 7 102
8 6 5 245 -2 316 -8z m-84 -2116 c159 -48 275 -147 344 -292 144 -304 -33
-678 -357 -753 -195 -45 -376 6 -517 146 -294 292 -154 793 251 903 72 20 208
18 279 -4z"/>
</g>
</svg>
